:SAMPLES-PER-SECOND 30
:FULLY-SPECIFIED
:DEGREES
141
root  -9.68861 34.7604 -17.6098 -172.4 1.85464 -179.779
RightUpLeg  -4.12681 -12.4346 3.9593
RightLeg  0.774638 -1.53274 0.0781858
RightFoot  3.60254 -0.00491274 0.0646723
RightToes  -16.9661 -0.0739471 -0.151993
Spine  -2.6479 0.829133 0.225754
Spine1  -5.30468 1.74331 1.17876
HEad  -62.3099 1.6094 5.23535
LeftShoulder1  -1.94126e-019 -3.10601e-018 -2.51263e-017
LeftArm  -12.9514 23.9454 -81.9511
LeftForeArm  33.0061 -17.5776 -2.92956
LeftHand  -0.341408 -0.908495 6.41952
RightShoulder  -4.96962e-017 0 -2.36833e-017
RightArm  -31.3819 -9.93585 74.2243
RightForeArm  27.0651 34.3999 6.09943
RightHand  0.164963 -8.73831 -6.99725
LeftUpLeg  -13.6746 -1.2015 5.59467
LeftLeg  23.6054 13.2748 4.75433
LeftFoot  -4.46069 -0.0436226 -0.958481
LeftToes  -23.4943 1.48347e-006 1.01831e-007
142
root  -9.84732 34.6853 -17.6337 -172.327 2.14206 -179.646
RightUpLeg  -4.85889 -12.088 3.83684
RightLeg  2.16097 -1.59599 0.0430676
RightFoot  2.93567 -0.00644928 0.0770326
RightToes  -17.3616 -0.074592 -0.155278
Spine  -2.61435 1.21036 0.513202
Spine1  -5.27063 2.66164 1.60675
HEad  -62.0103 1.74783 4.46149
LeftShoulder1  -1.94126e-019 -3.10601e-018 -2.51263e-017
LeftArm  -11.7401 23.7772 -82.3125
LeftForeArm  32.4372 -17.7821 -2.98219
LeftHand  -0.292606 -0.616821 5.75767
RightShoulder  -4.96962e-017 0 -2.36833e-017
RightArm  -38.9376 -8.76963 75.003
RightForeArm  37.1343 10.9502 1.66131
RightHand  0.123384 -7.69389 -7.80231
LeftUpLeg  -12.0948 -2.36627 6.15178
LeftLeg  19.0315 12.9733 3.52369
LeftFoot  0.576139 -0.000658782 0.29263
LeftToes  -28.2315 1.48347e-006 1.01831e-007
143
root  -10.0774 34.566 -17.6756 -172.344 2.00148 -179.846
RightUpLeg  -6.22902 -12.6761 3.2458
RightLeg  5.10091 -1.12635 -0.0267988
RightFoot  1.51365 -0.00986665 0.116374
RightToes  -18.3546 -0.0754614 -0.163462
Spine  -2.4543 1.63216 0.67764
Spine1  -5.00348 3.59732 1.75509
HEad  -62.5059 1.20521 3.84197
LeftShoulder1  -1.94126e-019 -3.10601e-018 -2.51263e-017
LeftArm  -11.3743 23.1425 -82.6902
LeftForeArm  32.8789 -18.1591 -3.09602
LeftHand  -0.301375 -0.671076 5.87976
RightShoulder  -4.96962e-017 0 -2.36833e-017
RightArm  -43.9742 -12.4705 75.4065
RightForeArm  52.7823 3.93571 0.682807
RightHand  0.356392 -8.84349 -12.8805
LeftUpLeg  -11.3465 -0.914094 5.55356
LeftLeg  16.8471 11.2251 2.6047
LeftFoot  1.93228 -0.00616257 0.526985
LeftToes  -22.1879 1.48347e-006 1.01831e-007
144
root  -10.3395 34.5048 -17.6908 -172.132 1.25996 -179.876
RightUpLeg  -7.20381 -13.129 2.87215
RightLeg  6.77796 -1.39203 -0.0740507
RightFoot  0.830995 -0.0104849 0.115837
RightToes  -19.126 -0.0766402 -0.169758
Spine  -2.35565 1.47241 0.845134
Spine1  -4.80317 3.15719 2.10348
HEad  -64.1718 1.05812 3.46782
LeftShoulder1  -1.94126e-019 -3.10601e-018 -2.51263e-017
LeftArm  -12.5293 22.8287 -83.2934
LeftForeArm  33.4657 -18.5106 -3.1717
LeftHand  -0.322021 -0.666276 6.28165
RightShoulder  -4.96962e-017 0 -2.36833e-017
RightArm  -44.3179 -16.6972 76.2647
RightForeArm  58.7245 1.88875 0.315651
RightHand  0.507467 -9.63115 -14.57
LeftUpLeg  -10.9478 0.883552 5.06656
LeftLeg  15.1793 9.40864 1.90235
LeftFoot  1.9385 -3.37759e-005 0.437871
LeftToes  -22.6706 1.48347e-006 1.01831e-007
145
root  -10.6379 34.4806 -17.6989 -172.007 -0.168579 179.806
RightUpLeg  -8.00639 -13.97 2.18572
RightLeg  8.382 -1.98473 -0.161839
RightFoot  0.166385 -0.0116991 0.123945
RightToes  -19.4765 -0.0785595 -0.1726
Spine  -2.31697 0.729352 1.00807
Spine1  -4.7264 1.52864 2.49671
HEad  -66.0791 1.8556 3.339
LeftShoulder1  -1.94126e-019 -3.10601e-018 -2.51263e-017
LeftArm  -13.4707 23.3504 -83.8787
LeftForeArm  32.1913 -18.8029 -3.16876
LeftHand  -0.342254 -0.526951 6.8159
RightShoulder  -4.96962e-017 0 -2.36833e-017
RightArm  -43.5611 -20.9709 77.1285
RightForeArm  60.7644 3.57631 0.5947
RightHand  0.112549 -6.70005 -11.9496
LeftUpLeg  -10.1769 -0.686228 4.29433
LeftLeg  12.8127 9.8779 1.5776
LeftFoot  2.64957 -0.00922294 0.560358
LeftToes  -21.6856 1.48347e-006 1.01831e-007
146
root  -10.9102 34.4684 -17.6838 -171.726 -1.5312 179.469
RightUpLeg  -8.79895 -14.4918 1.57059
RightLeg  9.63262 -2.85254 -0.295839
RightFoot  -0.371825 -0.0138415 0.14546
RightToes  -19.4853 -0.0786084 -0.174351
Spine  -2.4071 -0.129605 1.10753
Spine1  -4.90923 -0.307283 2.76945
HEad  -67.5497 2.99763 3.49254
LeftShoulder1  -1.94126e-019 -3.10601e-018 -2.51263e-017
LeftArm  -12.888 24.4526 -84.0496
LeftForeArm  30.2266 -19.4972 -3.23259
LeftHand  -0.35417 -0.433481 7.15557
RightShoulder  -4.96962e-017 0 -2.36833e-017
RightArm  -40.3261 -24.7871 77.6688
RightForeArm  58.7896 6.70104 1.14097
RightHand  -0.169603 -3.08579 -7.94193
LeftUpLeg  -9.91408 -2.57324 3.66333
LeftLeg  11.2128 10.4541 1.37258
LeftFoot  3.44373 -0.0168379 0.721661
LeftToes  -21.5658 1.48347e-006 1.01831e-007
147
root  -11.135 34.4549 -17.6746 -171.527 -2.28711 179.429
RightUpLeg  -9.23296 -14.8295 1.26928
RightLeg  10.2413 -3.28516 -0.376147
RightFoot  -0.530347 -0.0150325 0.153536
RightToes  -19.7196 -0.0807183 -0.175789
Spine  -2.52805 -0.743042 1.22481
Spine1  -5.1518 -1.61972 3.06575
HEad  -68.1555 3.93002 3.67222
LeftShoulder1  -1.94126e-019 -3.10601e-018 -2.51263e-017
LeftArm  -11.2387 25.4889 -84.0643
LeftForeArm  29.8066 -19.7813 -3.2482
LeftHand  -0.355951 -0.632796 6.97049
RightShoulder  -4.96962e-017 0 -2.36833e-017
RightArm  -38.2597 -27.7853 77.7686
RightForeArm  56.3591 9.4207 1.51178
RightHand  -0.196868 -1.52934 -5.74521
LeftUpLeg  -9.63453 -3.18672 3.39178
LeftLeg  9.9973 10.2165 1.12319
LeftFoot  3.93874 -0.0195591 0.786704
LeftToes  -22.0533 1.48347e-006 1.01831e-007
148
root  -11.334 34.4365 -17.6692 -171.438 -2.29845 179.548
RightUpLeg  -9.49108 -14.8754 1.08305
RightLeg  10.5805 -3.23206 -0.389487
RightFoot  -0.541638 -0.0152292 0.147574
RightToes  -20.1841 -0.0837341 -0.178301
Spine  -2.6077 -1.03826 1.30799
Spine1  -5.31106 -2.27472 3.26846
HEad  -68.0695 4.59254 4.08029
LeftShoulder1  -1.94126e-019 -3.10601e-018 -2.51263e-017
LeftArm  -9.29154 26.0585 -83.9781
LeftForeArm  30.9378 -19.229 -3.14656
LeftHand  -0.359926 -1.13503 6.54595
RightShoulder  -4.96962e-017 0 -2.36833e-017
RightArm  -38.1041 -29.7667 77.738
RightForeArm  53.0959 11.0682 1.54998
RightHand  -0.199286 -1.68634 -6.04469
LeftUpLeg  -9.46776 -3.19548 3.21355
LeftLeg  9.48531 10.186 1.0284
LeftFoot  3.90438 -0.0171039 0.77207
LeftToes  -21.889 1.48347e-006 1.01831e-007
149
root  -11.521 34.4192 -17.6649 -171.351 -1.97093 179.662
RightUpLeg  -9.70588 -14.8763 0.887758
RightLeg  10.7523 -2.90114 -0.358414
RightFoot  -0.409121 -0.0146339 0.130475
RightToes  -20.8255 -0.087045 -0.183426
Spine  -2.66538 -1.16548 1.34673
Spine1  -5.42585 -2.57632 3.35174
HEad  -67.4773 4.94528 4.66516
LeftShoulder1  -1.94126e-019 -3.10601e-018 -2.51263e-017
LeftArm  -7.74053 26.2651 -83.9294
LeftForeArm  32.5149 -17.964 -2.9374
LeftHand  -0.369574 -1.50215 6.38921
RightShoulder  -4.96962e-017 0 -2.36833e-017
RightArm  -39.5342 -30.836 77.6109
RightForeArm  51.0055 11.7539 1.53448
RightHand  -0.204368 -2.41956 -7.62923
LeftUpLeg  -9.64566 -2.92847 3.01295
LeftLeg  9.80166 10.1872 1.08503
LeftFoot  3.48221 -0.0103884 0.691932
LeftToes  -21.6974 1.48347e-006 1.01831e-007
150
root  -11.7015 34.4093 -17.6502 -171.216 -1.60561 179.704
RightUpLeg  -9.9125 -14.8298 0.650899
RightLeg  10.7583 -2.58598 -0.319702
RightFoot  -0.175037 -0.0139034 0.111638
RightToes  -21.5108 -0.0900401 -0.188857
Spine  -2.72123 -1.20178 1.34129
Spine1  -5.53441 -2.67271 3.32507
HEad  -66.7233 5.00776 5.33579
LeftShoulder1  -1.94126e-019 -3.10601e-018 -2.51263e-017
LeftArm  -7.75087 26.2403 -84.0526
LeftForeArm  33.9654 -16.2723 -2.68853
LeftHand  -0.298849 -1.18097 5.4211
RightShoulder  -4.96962e-017 0 -2.36833e-017
RightArm  -40.9803 -31.2007 77.2423
RightForeArm  50.5906 11.9467 1.52707
RightHand  -0.194568 -3.02812 -9.01592
LeftUpLeg  -9.87639 -2.31674 2.75737
LeftLeg  10.1034 9.85098 1.10172
LeftFoot  3.14393 -0.00345125 0.608997
LeftToes  -21.6586 1.48347e-006 1.01831e-007
